<mxfile host="app.diagrams.net" agent="Mozilla/5.0 (Windows NT 10.0; Win64; x64) AppleWebKit/537.36 (KHTML, like Gecko) Chrome/127.0.0.0 Safari/537.36" version="24.7.7">
  <diagram name="PÃ¡gina-1" id="gYXQ4PQmvJJArQJfaci6">
    <mxGraphModel dx="1222" dy="606" grid="1" gridSize="10" guides="1" tooltips="1" connect="1" arrows="1" fold="1" page="1" pageScale="1" pageWidth="827" pageHeight="1169" math="0" shadow="0">
      <root>
        <mxCell id="0" />
        <mxCell id="1" parent="0" />
        <mxCell id="wxJOrW_Wo2imXkOnGC0c-1" value="CUENTADANTE" style="shape=umlActor;verticalLabelPosition=bottom;verticalAlign=top;html=1;outlineConnect=0;" vertex="1" parent="1">
          <mxGeometry x="40" y="70" width="30" height="60" as="geometry" />
        </mxCell>
        <mxCell id="wxJOrW_Wo2imXkOnGC0c-34" value="" style="edgeStyle=orthogonalEdgeStyle;rounded=0;orthogonalLoop=1;jettySize=auto;html=1;entryX=-0.003;entryY=0.497;entryDx=0;entryDy=0;entryPerimeter=0;" edge="1" parent="1" source="wxJOrW_Wo2imXkOnGC0c-3" target="wxJOrW_Wo2imXkOnGC0c-32">
          <mxGeometry relative="1" as="geometry">
            <mxPoint x="210" y="230" as="targetPoint" />
            <Array as="points">
              <mxPoint x="210" y="542" />
            </Array>
          </mxGeometry>
        </mxCell>
        <mxCell id="wxJOrW_Wo2imXkOnGC0c-3" value="Inicio" style="shape=umlBoundary;whiteSpace=wrap;html=1;fillColor=#e1d5e7;strokeColor=#9673a6;" vertex="1" parent="1">
          <mxGeometry x="160" y="70" width="100" height="80" as="geometry" />
        </mxCell>
        <mxCell id="wxJOrW_Wo2imXkOnGC0c-4" style="edgeStyle=orthogonalEdgeStyle;rounded=0;orthogonalLoop=1;jettySize=auto;html=1;entryX=-0.002;entryY=0.481;entryDx=0;entryDy=0;entryPerimeter=0;" edge="1" parent="1" source="wxJOrW_Wo2imXkOnGC0c-1" target="wxJOrW_Wo2imXkOnGC0c-3">
          <mxGeometry relative="1" as="geometry" />
        </mxCell>
        <mxCell id="wxJOrW_Wo2imXkOnGC0c-5" value="Novedades&lt;div&gt;Abiertas&lt;/div&gt;" style="ellipse;shape=umlControl;whiteSpace=wrap;html=1;fillColor=#dae8fc;strokeColor=#6c8ebf;" vertex="1" parent="1">
          <mxGeometry x="320" y="20" width="70" height="80" as="geometry" />
        </mxCell>
        <mxCell id="wxJOrW_Wo2imXkOnGC0c-36" value="" style="edgeStyle=orthogonalEdgeStyle;rounded=0;orthogonalLoop=1;jettySize=auto;html=1;" edge="1" parent="1" source="wxJOrW_Wo2imXkOnGC0c-6" target="wxJOrW_Wo2imXkOnGC0c-35">
          <mxGeometry relative="1" as="geometry" />
        </mxCell>
        <mxCell id="wxJOrW_Wo2imXkOnGC0c-6" value="Novedades&lt;div&gt;en proceso&lt;/div&gt;" style="ellipse;shape=umlControl;whiteSpace=wrap;html=1;fillColor=#dae8fc;strokeColor=#6c8ebf;" vertex="1" parent="1">
          <mxGeometry x="320" y="120" width="70" height="80" as="geometry" />
        </mxCell>
        <mxCell id="wxJOrW_Wo2imXkOnGC0c-51" value="" style="edgeStyle=orthogonalEdgeStyle;rounded=0;orthogonalLoop=1;jettySize=auto;html=1;" edge="1" parent="1" source="wxJOrW_Wo2imXkOnGC0c-7" target="wxJOrW_Wo2imXkOnGC0c-49">
          <mxGeometry relative="1" as="geometry">
            <mxPoint x="470" y="340" as="targetPoint" />
          </mxGeometry>
        </mxCell>
        <mxCell id="wxJOrW_Wo2imXkOnGC0c-7" value="Novedades&lt;div&gt;Cerradas&lt;/div&gt;" style="ellipse;shape=umlControl;whiteSpace=wrap;html=1;fillColor=#dae8fc;strokeColor=#6c8ebf;" vertex="1" parent="1">
          <mxGeometry x="320" y="300" width="70" height="80" as="geometry" />
        </mxCell>
        <mxCell id="wxJOrW_Wo2imXkOnGC0c-8" style="edgeStyle=orthogonalEdgeStyle;rounded=0;orthogonalLoop=1;jettySize=auto;html=1;entryX=0.032;entryY=0.513;entryDx=0;entryDy=0;entryPerimeter=0;" edge="1" parent="1" source="wxJOrW_Wo2imXkOnGC0c-3" target="wxJOrW_Wo2imXkOnGC0c-5">
          <mxGeometry relative="1" as="geometry" />
        </mxCell>
        <mxCell id="wxJOrW_Wo2imXkOnGC0c-9" style="edgeStyle=orthogonalEdgeStyle;rounded=0;orthogonalLoop=1;jettySize=auto;html=1;entryX=-0.021;entryY=0.513;entryDx=0;entryDy=0;entryPerimeter=0;" edge="1" parent="1" source="wxJOrW_Wo2imXkOnGC0c-3" target="wxJOrW_Wo2imXkOnGC0c-6">
          <mxGeometry relative="1" as="geometry" />
        </mxCell>
        <mxCell id="wxJOrW_Wo2imXkOnGC0c-10" style="edgeStyle=orthogonalEdgeStyle;rounded=0;orthogonalLoop=1;jettySize=auto;html=1;entryX=0.014;entryY=0.513;entryDx=0;entryDy=0;entryPerimeter=0;" edge="1" parent="1" source="wxJOrW_Wo2imXkOnGC0c-3" target="wxJOrW_Wo2imXkOnGC0c-7">
          <mxGeometry relative="1" as="geometry" />
        </mxCell>
        <mxCell id="wxJOrW_Wo2imXkOnGC0c-40" value="" style="edgeStyle=orthogonalEdgeStyle;rounded=0;orthogonalLoop=1;jettySize=auto;html=1;" edge="1" parent="1" source="wxJOrW_Wo2imXkOnGC0c-11" target="wxJOrW_Wo2imXkOnGC0c-16">
          <mxGeometry relative="1" as="geometry" />
        </mxCell>
        <mxCell id="wxJOrW_Wo2imXkOnGC0c-11" value="Carga Novedades&lt;div&gt;Abiertas&lt;/div&gt;" style="ellipse;shape=umlControl;whiteSpace=wrap;html=1;fillColor=#ffe6cc;strokeColor=#d79b00;" vertex="1" parent="1">
          <mxGeometry x="580" y="10" width="70" height="80" as="geometry" />
        </mxCell>
        <mxCell id="wxJOrW_Wo2imXkOnGC0c-12" value="Novedades" style="ellipse;shape=umlEntity;whiteSpace=wrap;html=1;fillColor=#008a00;fontColor=#ffffff;strokeColor=#005700;" vertex="1" parent="1">
          <mxGeometry x="600" y="420" width="80" height="80" as="geometry" />
        </mxCell>
        <mxCell id="wxJOrW_Wo2imXkOnGC0c-14" style="edgeStyle=orthogonalEdgeStyle;rounded=0;orthogonalLoop=1;jettySize=auto;html=1;entryX=0.514;entryY=1.028;entryDx=0;entryDy=0;entryPerimeter=0;" edge="1" parent="1" source="wxJOrW_Wo2imXkOnGC0c-12" target="wxJOrW_Wo2imXkOnGC0c-11">
          <mxGeometry relative="1" as="geometry">
            <Array as="points">
              <mxPoint x="630" y="255" />
              <mxPoint x="616" y="255" />
            </Array>
          </mxGeometry>
        </mxCell>
        <mxCell id="wxJOrW_Wo2imXkOnGC0c-15" style="edgeStyle=orthogonalEdgeStyle;rounded=0;orthogonalLoop=1;jettySize=auto;html=1;entryX=-0.039;entryY=0.56;entryDx=0;entryDy=0;entryPerimeter=0;" edge="1" parent="1" source="wxJOrW_Wo2imXkOnGC0c-5" target="wxJOrW_Wo2imXkOnGC0c-11">
          <mxGeometry relative="1" as="geometry" />
        </mxCell>
        <mxCell id="wxJOrW_Wo2imXkOnGC0c-23" value="" style="edgeStyle=orthogonalEdgeStyle;rounded=0;orthogonalLoop=1;jettySize=auto;html=1;" edge="1" parent="1" source="wxJOrW_Wo2imXkOnGC0c-16" target="wxJOrW_Wo2imXkOnGC0c-20">
          <mxGeometry relative="1" as="geometry" />
        </mxCell>
        <mxCell id="wxJOrW_Wo2imXkOnGC0c-16" value="Novedades&amp;nbsp;&lt;div&gt;abiertas&lt;/div&gt;" style="shape=umlBoundary;whiteSpace=wrap;html=1;fillColor=#e1d5e7;strokeColor=#9673a6;" vertex="1" parent="1">
          <mxGeometry x="710" y="10" width="100" height="80" as="geometry" />
        </mxCell>
        <mxCell id="wxJOrW_Wo2imXkOnGC0c-27" value="" style="edgeStyle=orthogonalEdgeStyle;rounded=0;orthogonalLoop=1;jettySize=auto;html=1;" edge="1" parent="1" source="wxJOrW_Wo2imXkOnGC0c-20" target="wxJOrW_Wo2imXkOnGC0c-26">
          <mxGeometry relative="1" as="geometry" />
        </mxCell>
        <mxCell id="wxJOrW_Wo2imXkOnGC0c-20" value="Respuesta" style="ellipse;shape=umlControl;whiteSpace=wrap;html=1;fillColor=#dae8fc;strokeColor=#6c8ebf;" vertex="1" parent="1">
          <mxGeometry x="860" y="10" width="70" height="80" as="geometry" />
        </mxCell>
        <mxCell id="wxJOrW_Wo2imXkOnGC0c-22" value="Historial&lt;div&gt;Novedades&lt;/div&gt;" style="ellipse;shape=umlEntity;whiteSpace=wrap;html=1;fillColor=#008a00;fontColor=#ffffff;strokeColor=#005700;" vertex="1" parent="1">
          <mxGeometry x="740" y="410" width="80" height="80" as="geometry" />
        </mxCell>
        <mxCell id="wxJOrW_Wo2imXkOnGC0c-24" style="edgeStyle=orthogonalEdgeStyle;rounded=0;orthogonalLoop=1;jettySize=auto;html=1;entryX=0.55;entryY=0.997;entryDx=0;entryDy=0;entryPerimeter=0;" edge="1" parent="1" source="wxJOrW_Wo2imXkOnGC0c-22" target="wxJOrW_Wo2imXkOnGC0c-20">
          <mxGeometry relative="1" as="geometry" />
        </mxCell>
        <mxCell id="wxJOrW_Wo2imXkOnGC0c-29" value="" style="edgeStyle=orthogonalEdgeStyle;rounded=0;orthogonalLoop=1;jettySize=auto;html=1;entryX=0.5;entryY=0;entryDx=0;entryDy=0;exitX=0.604;exitY=0.966;exitDx=0;exitDy=0;exitPerimeter=0;" edge="1" parent="1" source="wxJOrW_Wo2imXkOnGC0c-30" target="wxJOrW_Wo2imXkOnGC0c-22">
          <mxGeometry relative="1" as="geometry">
            <mxPoint x="1050" y="180" as="targetPoint" />
            <Array as="points">
              <mxPoint x="1200" y="87" />
              <mxPoint x="1200" y="260" />
              <mxPoint x="770" y="260" />
            </Array>
          </mxGeometry>
        </mxCell>
        <mxCell id="wxJOrW_Wo2imXkOnGC0c-31" value="" style="edgeStyle=orthogonalEdgeStyle;rounded=0;orthogonalLoop=1;jettySize=auto;html=1;" edge="1" parent="1" source="wxJOrW_Wo2imXkOnGC0c-26" target="wxJOrW_Wo2imXkOnGC0c-30">
          <mxGeometry relative="1" as="geometry" />
        </mxCell>
        <mxCell id="wxJOrW_Wo2imXkOnGC0c-26" value="Respuesta a la novedad" style="shape=umlBoundary;whiteSpace=wrap;html=1;fillColor=#e1d5e7;strokeColor=#9673a6;" vertex="1" parent="1">
          <mxGeometry x="1000" y="10" width="100" height="80" as="geometry" />
        </mxCell>
        <mxCell id="wxJOrW_Wo2imXkOnGC0c-30" value="Graba Respuesta" style="ellipse;shape=umlControl;whiteSpace=wrap;html=1;fillColor=#dae8fc;strokeColor=#6c8ebf;" vertex="1" parent="1">
          <mxGeometry x="1160" y="10" width="70" height="80" as="geometry" />
        </mxCell>
        <mxCell id="wxJOrW_Wo2imXkOnGC0c-60" value="" style="edgeStyle=orthogonalEdgeStyle;rounded=0;orthogonalLoop=1;jettySize=auto;html=1;" edge="1" parent="1" source="wxJOrW_Wo2imXkOnGC0c-32" target="wxJOrW_Wo2imXkOnGC0c-59">
          <mxGeometry relative="1" as="geometry" />
        </mxCell>
        <mxCell id="wxJOrW_Wo2imXkOnGC0c-32" value="Equipamiento" style="ellipse;shape=umlControl;whiteSpace=wrap;html=1;fillColor=#dae8fc;strokeColor=#6c8ebf;" vertex="1" parent="1">
          <mxGeometry x="330" y="500" width="84" height="85" as="geometry" />
        </mxCell>
        <mxCell id="wxJOrW_Wo2imXkOnGC0c-42" value="" style="edgeStyle=orthogonalEdgeStyle;rounded=0;orthogonalLoop=1;jettySize=auto;html=1;entryX=0.035;entryY=0.513;entryDx=0;entryDy=0;entryPerimeter=0;" edge="1" parent="1" source="wxJOrW_Wo2imXkOnGC0c-35" target="wxJOrW_Wo2imXkOnGC0c-39">
          <mxGeometry relative="1" as="geometry">
            <mxPoint x="655" y="150" as="targetPoint" />
          </mxGeometry>
        </mxCell>
        <mxCell id="wxJOrW_Wo2imXkOnGC0c-35" value="Carga Novedades&lt;div&gt;en proceso&lt;/div&gt;" style="ellipse;shape=umlControl;whiteSpace=wrap;html=1;fillColor=#ffe6cc;strokeColor=#d79b00;" vertex="1" parent="1">
          <mxGeometry x="505" y="110" width="70" height="80" as="geometry" />
        </mxCell>
        <mxCell id="wxJOrW_Wo2imXkOnGC0c-38" style="edgeStyle=orthogonalEdgeStyle;rounded=0;orthogonalLoop=1;jettySize=auto;html=1;entryX=0.407;entryY=0.981;entryDx=0;entryDy=0;entryPerimeter=0;" edge="1" parent="1" source="wxJOrW_Wo2imXkOnGC0c-12" target="wxJOrW_Wo2imXkOnGC0c-35">
          <mxGeometry relative="1" as="geometry" />
        </mxCell>
        <mxCell id="wxJOrW_Wo2imXkOnGC0c-44" value="" style="edgeStyle=orthogonalEdgeStyle;rounded=0;orthogonalLoop=1;jettySize=auto;html=1;" edge="1" parent="1" source="wxJOrW_Wo2imXkOnGC0c-39" target="wxJOrW_Wo2imXkOnGC0c-43">
          <mxGeometry relative="1" as="geometry" />
        </mxCell>
        <mxCell id="wxJOrW_Wo2imXkOnGC0c-39" value="Novedades&amp;nbsp;&lt;div&gt;en proceso&lt;/div&gt;" style="shape=umlBoundary;whiteSpace=wrap;html=1;fillColor=#e1d5e7;strokeColor=#9673a6;" vertex="1" parent="1">
          <mxGeometry x="710" y="120" width="100" height="80" as="geometry" />
        </mxCell>
        <mxCell id="wxJOrW_Wo2imXkOnGC0c-46" value="" style="edgeStyle=orthogonalEdgeStyle;rounded=0;orthogonalLoop=1;jettySize=auto;html=1;" edge="1" parent="1" source="wxJOrW_Wo2imXkOnGC0c-43" target="wxJOrW_Wo2imXkOnGC0c-45">
          <mxGeometry relative="1" as="geometry" />
        </mxCell>
        <mxCell id="wxJOrW_Wo2imXkOnGC0c-43" value="Respuestas" style="ellipse;shape=umlControl;whiteSpace=wrap;html=1;fillColor=#ffe6cc;strokeColor=#d79b00;" vertex="1" parent="1">
          <mxGeometry x="920" y="110" width="70" height="80" as="geometry" />
        </mxCell>
        <mxCell id="wxJOrW_Wo2imXkOnGC0c-48" value="" style="edgeStyle=orthogonalEdgeStyle;rounded=0;orthogonalLoop=1;jettySize=auto;html=1;entryX=0.354;entryY=1.013;entryDx=0;entryDy=0;entryPerimeter=0;" edge="1" parent="1" source="wxJOrW_Wo2imXkOnGC0c-45" target="wxJOrW_Wo2imXkOnGC0c-30">
          <mxGeometry relative="1" as="geometry">
            <mxPoint x="1220" y="150" as="targetPoint" />
          </mxGeometry>
        </mxCell>
        <mxCell id="wxJOrW_Wo2imXkOnGC0c-45" value="Respuesta a la novedad" style="shape=umlBoundary;whiteSpace=wrap;html=1;fillColor=#e1d5e7;strokeColor=#9673a6;" vertex="1" parent="1">
          <mxGeometry x="1040" y="110" width="100" height="80" as="geometry" />
        </mxCell>
        <mxCell id="wxJOrW_Wo2imXkOnGC0c-49" value="Carga Novedades&lt;div&gt;cerrads&lt;/div&gt;" style="ellipse;shape=umlControl;whiteSpace=wrap;html=1;fillColor=#ffe6cc;strokeColor=#d79b00;" vertex="1" parent="1">
          <mxGeometry x="440" y="280" width="70" height="80" as="geometry" />
        </mxCell>
        <mxCell id="wxJOrW_Wo2imXkOnGC0c-52" style="edgeStyle=orthogonalEdgeStyle;rounded=0;orthogonalLoop=1;jettySize=auto;html=1;entryX=0.425;entryY=0.95;entryDx=0;entryDy=0;entryPerimeter=0;" edge="1" parent="1" source="wxJOrW_Wo2imXkOnGC0c-12" target="wxJOrW_Wo2imXkOnGC0c-49">
          <mxGeometry relative="1" as="geometry" />
        </mxCell>
        <mxCell id="wxJOrW_Wo2imXkOnGC0c-53" value="Novedades&amp;nbsp;&lt;div&gt;cerradas&lt;/div&gt;" style="shape=umlBoundary;whiteSpace=wrap;html=1;fillColor=#e1d5e7;strokeColor=#9673a6;" vertex="1" parent="1">
          <mxGeometry x="660" y="240" width="100" height="80" as="geometry" />
        </mxCell>
        <mxCell id="wxJOrW_Wo2imXkOnGC0c-54" style="edgeStyle=orthogonalEdgeStyle;rounded=0;orthogonalLoop=1;jettySize=auto;html=1;entryX=0.035;entryY=0.528;entryDx=0;entryDy=0;entryPerimeter=0;" edge="1" parent="1" source="wxJOrW_Wo2imXkOnGC0c-49" target="wxJOrW_Wo2imXkOnGC0c-53">
          <mxGeometry relative="1" as="geometry" />
        </mxCell>
        <mxCell id="wxJOrW_Wo2imXkOnGC0c-56" style="edgeStyle=orthogonalEdgeStyle;rounded=0;orthogonalLoop=1;jettySize=auto;html=1;entryX=0.5;entryY=1;entryDx=0;entryDy=0;exitX=0.514;exitY=1.028;exitDx=0;exitDy=0;exitPerimeter=0;" edge="1" parent="1" source="wxJOrW_Wo2imXkOnGC0c-55" target="wxJOrW_Wo2imXkOnGC0c-12">
          <mxGeometry relative="1" as="geometry">
            <Array as="points">
              <mxPoint x="1006" y="420" />
              <mxPoint x="910" y="420" />
              <mxPoint x="910" y="530" />
              <mxPoint x="650" y="530" />
            </Array>
          </mxGeometry>
        </mxCell>
        <mxCell id="wxJOrW_Wo2imXkOnGC0c-55" value="Reabrir una novedad" style="ellipse;shape=umlControl;whiteSpace=wrap;html=1;fillColor=#ffe6cc;strokeColor=#d79b00;" vertex="1" parent="1">
          <mxGeometry x="970" y="290" width="70" height="80" as="geometry" />
        </mxCell>
        <mxCell id="wxJOrW_Wo2imXkOnGC0c-57" style="edgeStyle=orthogonalEdgeStyle;rounded=0;orthogonalLoop=1;jettySize=auto;html=1;exitX=1.01;exitY=0.513;exitDx=0;exitDy=0;exitPerimeter=0;entryX=0.068;entryY=0.591;entryDx=0;entryDy=0;entryPerimeter=0;" edge="1" parent="1" source="wxJOrW_Wo2imXkOnGC0c-53" target="wxJOrW_Wo2imXkOnGC0c-55">
          <mxGeometry relative="1" as="geometry">
            <mxPoint x="840" y="330" as="sourcePoint" />
            <Array as="points">
              <mxPoint x="761" y="330" />
              <mxPoint x="940" y="330" />
              <mxPoint x="940" y="327" />
            </Array>
          </mxGeometry>
        </mxCell>
        <mxCell id="wxJOrW_Wo2imXkOnGC0c-58" style="edgeStyle=orthogonalEdgeStyle;rounded=0;orthogonalLoop=1;jettySize=auto;html=1;entryX=0.997;entryY=0.7;entryDx=0;entryDy=0;entryPerimeter=0;" edge="1" parent="1" source="wxJOrW_Wo2imXkOnGC0c-22" target="wxJOrW_Wo2imXkOnGC0c-49">
          <mxGeometry relative="1" as="geometry">
            <Array as="points">
              <mxPoint x="710" y="450" />
              <mxPoint x="710" y="336" />
            </Array>
          </mxGeometry>
        </mxCell>
        <mxCell id="wxJOrW_Wo2imXkOnGC0c-59" value="Carga Elementos" style="ellipse;shape=umlControl;whiteSpace=wrap;html=1;fillColor=#fff2cc;strokeColor=#d6b656;" vertex="1" parent="1">
          <mxGeometry x="480" y="500" width="84" height="85" as="geometry" />
        </mxCell>
        <mxCell id="wxJOrW_Wo2imXkOnGC0c-67" value="" style="edgeStyle=orthogonalEdgeStyle;rounded=0;orthogonalLoop=1;jettySize=auto;html=1;" edge="1" parent="1" source="wxJOrW_Wo2imXkOnGC0c-61" target="wxJOrW_Wo2imXkOnGC0c-66">
          <mxGeometry relative="1" as="geometry" />
        </mxCell>
        <mxCell id="wxJOrW_Wo2imXkOnGC0c-61" value="Lista Elementos" style="shape=umlBoundary;whiteSpace=wrap;html=1;fillColor=#e1d5e7;strokeColor=#9673a6;" vertex="1" parent="1">
          <mxGeometry x="700" y="560" width="100" height="80" as="geometry" />
        </mxCell>
        <mxCell id="wxJOrW_Wo2imXkOnGC0c-62" style="edgeStyle=orthogonalEdgeStyle;rounded=0;orthogonalLoop=1;jettySize=auto;html=1;entryX=-0.015;entryY=0.544;entryDx=0;entryDy=0;entryPerimeter=0;" edge="1" parent="1" source="wxJOrW_Wo2imXkOnGC0c-59" target="wxJOrW_Wo2imXkOnGC0c-61">
          <mxGeometry relative="1" as="geometry" />
        </mxCell>
        <mxCell id="wxJOrW_Wo2imXkOnGC0c-64" value="" style="edgeStyle=orthogonalEdgeStyle;rounded=0;orthogonalLoop=1;jettySize=auto;html=1;" edge="1" parent="1" source="wxJOrW_Wo2imXkOnGC0c-63" target="wxJOrW_Wo2imXkOnGC0c-59">
          <mxGeometry relative="1" as="geometry" />
        </mxCell>
        <mxCell id="wxJOrW_Wo2imXkOnGC0c-63" value="Elementos" style="ellipse;shape=umlEntity;whiteSpace=wrap;html=1;fillColor=#008a00;fontColor=#ffffff;strokeColor=#005700;" vertex="1" parent="1">
          <mxGeometry x="480" y="640" width="80" height="80" as="geometry" />
        </mxCell>
        <mxCell id="wxJOrW_Wo2imXkOnGC0c-73" value="" style="edgeStyle=orthogonalEdgeStyle;rounded=0;orthogonalLoop=1;jettySize=auto;html=1;" edge="1" parent="1" source="wxJOrW_Wo2imXkOnGC0c-65" target="wxJOrW_Wo2imXkOnGC0c-72">
          <mxGeometry relative="1" as="geometry" />
        </mxCell>
        <mxCell id="wxJOrW_Wo2imXkOnGC0c-65" value="Edita Elemento" style="ellipse;shape=umlControl;whiteSpace=wrap;html=1;fillColor=#dae8fc;strokeColor=#6c8ebf;" vertex="1" parent="1">
          <mxGeometry x="900" y="530" width="84" height="85" as="geometry" />
        </mxCell>
        <mxCell id="wxJOrW_Wo2imXkOnGC0c-66" value="Elimina&lt;div&gt;Elemento&lt;/div&gt;" style="ellipse;shape=umlControl;whiteSpace=wrap;html=1;fillColor=#dae8fc;strokeColor=#6c8ebf;" vertex="1" parent="1">
          <mxGeometry x="900" y="630" width="84" height="85" as="geometry" />
        </mxCell>
        <mxCell id="wxJOrW_Wo2imXkOnGC0c-68" style="edgeStyle=orthogonalEdgeStyle;rounded=0;orthogonalLoop=1;jettySize=auto;html=1;entryX=0.027;entryY=0.571;entryDx=0;entryDy=0;entryPerimeter=0;" edge="1" parent="1" source="wxJOrW_Wo2imXkOnGC0c-61" target="wxJOrW_Wo2imXkOnGC0c-65">
          <mxGeometry relative="1" as="geometry" />
        </mxCell>
        <mxCell id="wxJOrW_Wo2imXkOnGC0c-75" value="" style="edgeStyle=orthogonalEdgeStyle;rounded=0;orthogonalLoop=1;jettySize=auto;html=1;" edge="1" parent="1" source="wxJOrW_Wo2imXkOnGC0c-69" target="wxJOrW_Wo2imXkOnGC0c-74">
          <mxGeometry relative="1" as="geometry" />
        </mxCell>
        <mxCell id="wxJOrW_Wo2imXkOnGC0c-69" value="Crea&lt;div&gt;Elemento&lt;/div&gt;" style="ellipse;shape=umlControl;whiteSpace=wrap;html=1;fillColor=#dae8fc;strokeColor=#6c8ebf;" vertex="1" parent="1">
          <mxGeometry x="900" y="730" width="84" height="85" as="geometry" />
        </mxCell>
        <mxCell id="wxJOrW_Wo2imXkOnGC0c-71" style="edgeStyle=orthogonalEdgeStyle;rounded=0;orthogonalLoop=1;jettySize=auto;html=1;entryX=0.027;entryY=0.527;entryDx=0;entryDy=0;entryPerimeter=0;" edge="1" parent="1" source="wxJOrW_Wo2imXkOnGC0c-61" target="wxJOrW_Wo2imXkOnGC0c-69">
          <mxGeometry relative="1" as="geometry">
            <Array as="points">
              <mxPoint x="850" y="600" />
              <mxPoint x="850" y="775" />
            </Array>
          </mxGeometry>
        </mxCell>
        <mxCell id="wxJOrW_Wo2imXkOnGC0c-78" value="" style="edgeStyle=orthogonalEdgeStyle;rounded=0;orthogonalLoop=1;jettySize=auto;html=1;entryX=0.518;entryY=0.071;entryDx=0;entryDy=0;entryPerimeter=0;" edge="1" parent="1" source="wxJOrW_Wo2imXkOnGC0c-72" target="wxJOrW_Wo2imXkOnGC0c-76">
          <mxGeometry relative="1" as="geometry">
            <mxPoint x="1210" y="572.5" as="targetPoint" />
          </mxGeometry>
        </mxCell>
        <mxCell id="wxJOrW_Wo2imXkOnGC0c-72" value="Edita&lt;div&gt;Elementos&lt;/div&gt;" style="shape=umlBoundary;whiteSpace=wrap;html=1;fillColor=#e1d5e7;strokeColor=#9673a6;" vertex="1" parent="1">
          <mxGeometry x="1030" y="532.5" width="100" height="80" as="geometry" />
        </mxCell>
        <mxCell id="wxJOrW_Wo2imXkOnGC0c-79" style="edgeStyle=orthogonalEdgeStyle;rounded=0;orthogonalLoop=1;jettySize=auto;html=1;" edge="1" parent="1" source="wxJOrW_Wo2imXkOnGC0c-74" target="wxJOrW_Wo2imXkOnGC0c-76">
          <mxGeometry relative="1" as="geometry" />
        </mxCell>
        <mxCell id="wxJOrW_Wo2imXkOnGC0c-74" value="Crea&lt;div&gt;Elementos&lt;/div&gt;" style="shape=umlBoundary;whiteSpace=wrap;html=1;fillColor=#e1d5e7;strokeColor=#9673a6;" vertex="1" parent="1">
          <mxGeometry x="1040" y="732.5" width="100" height="80" as="geometry" />
        </mxCell>
        <mxCell id="wxJOrW_Wo2imXkOnGC0c-80" style="edgeStyle=orthogonalEdgeStyle;rounded=0;orthogonalLoop=1;jettySize=auto;html=1;entryX=0.5;entryY=1;entryDx=0;entryDy=0;" edge="1" parent="1" source="wxJOrW_Wo2imXkOnGC0c-76" target="wxJOrW_Wo2imXkOnGC0c-63">
          <mxGeometry relative="1" as="geometry">
            <Array as="points">
              <mxPoint x="1290" y="673" />
              <mxPoint x="1290" y="850" />
              <mxPoint x="520" y="850" />
            </Array>
          </mxGeometry>
        </mxCell>
        <mxCell id="wxJOrW_Wo2imXkOnGC0c-76" value="Graba Elemento" style="ellipse;shape=umlControl;whiteSpace=wrap;html=1;fillColor=#fff2cc;strokeColor=#d6b656;" vertex="1" parent="1">
          <mxGeometry x="1170" y="630" width="84" height="85" as="geometry" />
        </mxCell>
        <mxCell id="wxJOrW_Wo2imXkOnGC0c-81" value="Configuracion&lt;div&gt;Cuentadante&lt;/div&gt;" style="ellipse;shape=umlControl;whiteSpace=wrap;html=1;fillColor=#dae8fc;strokeColor=#6c8ebf;" vertex="1" parent="1">
          <mxGeometry x="330" y="840" width="84" height="85" as="geometry" />
        </mxCell>
        <mxCell id="wxJOrW_Wo2imXkOnGC0c-83" style="edgeStyle=orthogonalEdgeStyle;rounded=0;orthogonalLoop=1;jettySize=auto;html=1;entryX=-0.003;entryY=0.718;entryDx=0;entryDy=0;entryPerimeter=0;" edge="1" parent="1" source="wxJOrW_Wo2imXkOnGC0c-3" target="wxJOrW_Wo2imXkOnGC0c-81">
          <mxGeometry relative="1" as="geometry">
            <Array as="points">
              <mxPoint x="210" y="901" />
            </Array>
          </mxGeometry>
        </mxCell>
        <mxCell id="wxJOrW_Wo2imXkOnGC0c-84" value="Elementos" style="ellipse;shape=umlEntity;whiteSpace=wrap;html=1;fillColor=#008a00;fontColor=#ffffff;strokeColor=#005700;" vertex="1" parent="1">
          <mxGeometry x="476" y="1000" width="80" height="80" as="geometry" />
        </mxCell>
        <mxCell id="wxJOrW_Wo2imXkOnGC0c-89" value="" style="edgeStyle=orthogonalEdgeStyle;rounded=0;orthogonalLoop=1;jettySize=auto;html=1;" edge="1" parent="1" source="wxJOrW_Wo2imXkOnGC0c-85" target="wxJOrW_Wo2imXkOnGC0c-88">
          <mxGeometry relative="1" as="geometry" />
        </mxCell>
        <mxCell id="wxJOrW_Wo2imXkOnGC0c-85" value="Carga&lt;div&gt;Cuentadante&lt;/div&gt;" style="ellipse;shape=umlControl;whiteSpace=wrap;html=1;fillColor=#dae8fc;strokeColor=#6c8ebf;" vertex="1" parent="1">
          <mxGeometry x="476" y="860" width="84" height="85" as="geometry" />
        </mxCell>
        <mxCell id="wxJOrW_Wo2imXkOnGC0c-86" style="edgeStyle=orthogonalEdgeStyle;rounded=0;orthogonalLoop=1;jettySize=auto;html=1;entryX=0.03;entryY=0.6;entryDx=0;entryDy=0;entryPerimeter=0;" edge="1" parent="1" source="wxJOrW_Wo2imXkOnGC0c-81" target="wxJOrW_Wo2imXkOnGC0c-85">
          <mxGeometry relative="1" as="geometry" />
        </mxCell>
        <mxCell id="wxJOrW_Wo2imXkOnGC0c-87" style="edgeStyle=orthogonalEdgeStyle;rounded=0;orthogonalLoop=1;jettySize=auto;html=1;entryX=0.461;entryY=0.982;entryDx=0;entryDy=0;entryPerimeter=0;" edge="1" parent="1" source="wxJOrW_Wo2imXkOnGC0c-84" target="wxJOrW_Wo2imXkOnGC0c-85">
          <mxGeometry relative="1" as="geometry" />
        </mxCell>
        <mxCell id="wxJOrW_Wo2imXkOnGC0c-88" value="Datos cuentadante" style="shape=umlBoundary;whiteSpace=wrap;html=1;fillColor=#e1d5e7;strokeColor=#9673a6;" vertex="1" parent="1">
          <mxGeometry x="650" y="862.5" width="100" height="80" as="geometry" />
        </mxCell>
        <mxCell id="wxJOrW_Wo2imXkOnGC0c-90" value="Graba Cuentadante" style="ellipse;shape=umlControl;whiteSpace=wrap;html=1;fillColor=#fff2cc;strokeColor=#d6b656;" vertex="1" parent="1">
          <mxGeometry x="668" y="980" width="84" height="85" as="geometry" />
        </mxCell>
        <mxCell id="wxJOrW_Wo2imXkOnGC0c-91" style="edgeStyle=orthogonalEdgeStyle;rounded=0;orthogonalLoop=1;jettySize=auto;html=1;entryX=0.482;entryY=0.1;entryDx=0;entryDy=0;entryPerimeter=0;" edge="1" parent="1" source="wxJOrW_Wo2imXkOnGC0c-88" target="wxJOrW_Wo2imXkOnGC0c-90">
          <mxGeometry relative="1" as="geometry" />
        </mxCell>
        <mxCell id="wxJOrW_Wo2imXkOnGC0c-92" style="edgeStyle=orthogonalEdgeStyle;rounded=0;orthogonalLoop=1;jettySize=auto;html=1;entryX=1;entryY=0.356;entryDx=0;entryDy=0;entryPerimeter=0;" edge="1" parent="1" source="wxJOrW_Wo2imXkOnGC0c-90" target="wxJOrW_Wo2imXkOnGC0c-84">
          <mxGeometry relative="1" as="geometry" />
        </mxCell>
      </root>
    </mxGraphModel>
  </diagram>
</mxfile>
